<svg width="24" height="24" viewBox="0 0 24 24" fill="none" xmlns="http://www.w3.org/2000/svg">
<path d="M11.917 0.75C18.0838 0.750262 23.0827 5.75018 23.083 11.917C23.0827 18.0838 18.0838 23.0827 11.917 23.083C5.75018 23.0827 0.750262 18.0838 0.75 11.917C0.750261 5.75017 5.75017 0.750261 11.917 0.75ZM11.917 2.34961C6.63383 2.34987 2.34987 6.63383 2.34961 11.917C2.34987 17.2002 6.63383 21.4831 11.917 21.4834C17.2002 21.4831 21.4831 17.2002 21.4834 11.917C21.4831 6.63383 17.2002 2.34987 11.917 2.34961ZM12.8916 7.79004L9.29785 11.3838H17.418V12.9834H9.34277L12.8916 16.5322L11.7607 17.6631L6.82422 12.7266C6.51188 12.4142 6.51192 11.9081 6.82422 11.5957L11.7607 6.65918L12.8916 7.79004Z" fill="black"/>
</svg>
