<?xml version="1.0" encoding="UTF-8"?> <svg xmlns="http://www.w3.org/2000/svg" width="800" height="800" viewBox="0 0 800 800" fill="none"> <path d="M800 0H0V800H800V0Z" fill="#1D2432"></path> <g clip-path="url(#clip0)"> <path d="M505.307 483.615C503.166 482.02 501.578 479.871 499.851 477.652C498.193 475.434 496.26 473.076 493.635 471.204C491.01 469.332 487.626 468.292 484.449 468.084C481.203 467.876 477.681 468.57 474.642 470.234C471.603 471.898 469.323 474.186 467.321 476.127C465.318 478.068 463.522 479.732 461.795 480.634C459.999 481.535 458.204 481.812 456.132 481.743C454.06 481.604 452.333 481.049 450.814 480.01C449.294 478.97 447.706 477.306 445.91 475.156C444.114 473.076 441.904 470.442 438.658 468.431C435.412 466.351 431.337 465.311 427.745 465.242C426.847 465.242 425.88 465.311 424.983 465.38C424.085 465.45 423.049 465.727 422.151 465.866C420.286 466.351 418.352 467.114 416.695 468.084C413.379 470.095 411.031 472.66 409.097 474.671C407.232 476.751 405.644 478.276 404.193 479.108C402.743 479.94 401.293 480.287 399.428 480.356C397.494 480.287 396.044 479.94 394.662 479.108C393.212 478.276 391.623 476.682 389.759 474.671C387.825 472.66 385.476 470.095 382.161 468.084C378.846 466.074 374.702 465.103 371.11 465.172C367.519 465.242 363.444 466.282 360.198 468.362C356.952 470.442 354.742 473.007 352.946 475.087C351.15 477.236 349.631 478.9 348.042 479.94C346.523 480.98 344.865 481.535 342.724 481.674C340.652 481.743 338.856 481.465 337.061 480.495C335.265 479.594 333.538 477.93 331.535 475.988C329.532 474.047 327.184 471.759 324.145 470.095C321.106 468.431 317.515 467.738 314.338 467.946C311.091 468.154 307.776 469.194 305.152 471.135C302.527 473.007 300.593 475.364 298.936 477.583C297.278 479.802 295.62 481.951 293.479 483.545C291.407 485.209 288.783 486.111 286.02 486.527C288.783 486.873 291.753 486.457 294.446 485.14C297.14 483.823 299.35 481.812 301.422 479.94C303.494 478.068 305.497 476.266 307.638 475.226C309.779 474.186 311.989 473.839 314.407 474.047C316.755 474.255 318.827 474.948 320.554 476.196C322.349 477.444 323.869 479.316 325.595 481.465C327.322 483.615 329.463 486.18 332.433 488.121C335.403 490.132 339.271 491.241 342.724 491.311C346.177 491.449 350.114 490.617 353.36 488.745C356.606 486.873 358.955 484.377 360.889 482.436C362.822 480.426 364.48 478.9 366 477.999C367.519 477.167 369.108 476.82 371.041 476.82C372.975 476.959 374.495 477.306 375.945 478.276C377.396 479.178 378.915 480.772 380.78 482.852C382.645 484.932 384.924 487.497 388.308 489.577C391.623 491.657 395.767 492.697 399.497 492.697C400.464 492.628 401.362 492.559 402.329 492.489C403.296 492.42 404.263 492.143 405.229 491.935C407.163 491.449 409.028 490.617 410.686 489.577C414.001 487.497 416.349 484.932 418.214 482.852C420.079 480.772 421.598 479.178 423.049 478.276C424.499 477.375 425.95 476.959 427.952 476.82C429.886 476.82 431.475 477.098 432.994 477.999C434.514 478.831 436.171 480.356 438.105 482.436C440.039 484.447 442.387 486.943 445.634 488.745C448.88 490.617 452.817 491.449 456.27 491.311C459.723 491.241 463.522 490.132 466.561 488.121C469.6 486.111 471.672 483.615 473.398 481.465C475.125 479.316 476.714 477.444 478.44 476.196C480.167 474.948 482.239 474.255 484.587 474.047C486.936 473.908 489.215 474.186 491.356 475.226C493.497 476.266 495.5 478.068 497.572 479.94C499.644 481.812 501.854 483.892 504.548 485.14C507.241 486.457 510.211 486.873 512.974 486.527C510.004 486.18 507.379 485.209 505.307 483.615Z" fill="#39A8E0"></path> <path d="M478.302 499.354C476.161 499.978 474.089 501.156 472.293 502.474C468.702 505.178 465.87 508.367 462.693 509.754C461.174 510.516 459.585 510.724 457.927 510.794C457.099 510.724 456.27 510.794 455.441 510.586C455.027 510.516 454.612 510.447 454.267 510.378L453.162 510.031C451.711 509.476 450.468 508.783 449.294 507.604C448.12 506.495 446.946 505.039 445.564 503.444C444.183 501.78 442.664 499.978 440.661 498.244C438.727 496.511 436.033 495.055 433.271 494.223L431.199 493.668C430.508 493.53 429.817 493.53 429.127 493.46C427.745 493.252 426.364 493.391 424.983 493.46C422.22 493.738 419.181 494.57 416.695 496.095C414.208 497.551 412.205 499.354 410.548 501.018C408.959 502.682 407.578 504.138 406.334 505.247C403.848 507.535 402.052 508.159 399.152 508.228C396.251 508.159 394.455 507.466 391.969 505.247C390.725 504.138 389.344 502.612 387.756 501.018C386.167 499.354 384.164 497.551 381.678 496.095C379.191 494.57 376.221 493.738 373.459 493.46C372.077 493.391 370.696 493.252 369.315 493.46C368.624 493.53 367.933 493.599 367.243 493.668L365.171 494.154C362.408 494.986 359.714 496.372 357.781 498.175C355.778 499.908 354.258 501.711 352.877 503.375C351.565 504.97 350.39 506.426 349.147 507.535C347.973 508.714 346.73 509.407 345.279 509.962L344.174 510.308C343.76 510.378 343.346 510.447 343 510.516C342.171 510.724 341.343 510.655 340.514 510.724C338.856 510.655 337.268 510.447 335.748 509.684C332.571 508.298 329.739 505.108 326.217 502.404C324.421 501.018 322.349 499.908 320.208 499.284C318.067 498.591 315.788 498.66 313.716 498.938C315.788 499.423 317.791 499.839 319.517 501.018C321.244 502.058 322.626 503.375 323.869 504.9C325.112 506.495 326.355 508.159 327.667 509.892C328.98 511.626 330.637 513.359 332.64 514.884C334.643 516.409 337.199 517.311 339.685 517.865C340.928 518.073 342.171 518.281 343.484 518.212C344.105 518.212 344.796 518.212 345.418 518.143L347.42 517.865C350.045 517.311 352.67 516.201 354.742 514.676C356.814 513.151 358.54 511.556 360.06 510.031C361.51 508.575 362.891 507.327 364.204 506.426C365.516 505.455 366.69 505.108 368.002 504.762C368.348 504.692 368.693 504.692 368.969 504.623C369.315 504.623 369.66 504.623 370.074 504.623C370.765 504.554 371.525 504.762 372.215 504.762C373.528 505.039 374.702 505.386 375.807 506.148C376.912 506.911 378.017 507.951 379.329 509.338C380.642 510.724 382.023 512.458 383.819 514.191C385.614 515.993 388.032 517.727 390.794 518.905C393.557 520.223 396.527 520.5 399.359 520.639C402.121 520.5 405.091 520.223 407.923 518.905C410.686 517.727 413.103 515.924 414.899 514.191C416.695 512.458 418.145 510.724 419.388 509.338C420.631 507.951 421.805 506.911 422.911 506.148C423.947 505.386 425.121 505.039 426.502 504.762C427.193 504.692 427.952 504.554 428.643 504.623C428.988 504.623 429.403 504.623 429.748 504.623C430.093 504.692 430.37 504.762 430.715 504.762C432.027 505.039 433.201 505.455 434.445 506.426C435.757 507.327 437.069 508.575 438.589 510.031C440.108 511.556 441.835 513.151 443.907 514.676C445.979 516.201 448.603 517.38 451.228 517.865L453.231 518.143C453.852 518.212 454.543 518.143 455.165 518.212C456.477 518.281 457.72 518.073 458.963 517.865C461.45 517.311 464.005 516.409 466.008 514.884C468.011 513.428 469.669 511.626 470.981 509.892C472.293 508.159 473.536 506.495 474.78 504.9C476.023 503.306 477.473 502.058 479.131 501.018C480.789 499.839 482.791 499.423 484.933 498.938C482.722 498.73 480.443 498.66 478.302 499.354Z" fill="#39A8E0"></path> <path d="M418.007 526.531C414.761 527.641 411.998 529.721 409.857 531.454C407.647 533.187 405.782 534.643 404.193 535.267C402.605 535.961 401.224 536.169 399.29 536.238C397.425 536.169 395.974 535.961 394.386 535.267C392.797 534.574 390.933 533.187 388.722 531.454C386.512 529.721 383.819 527.641 380.573 526.531C377.326 525.422 373.804 525.63 371.041 526.947C373.873 528.334 375.945 529.859 377.396 531.731C378.915 533.534 380.02 535.614 381.54 537.971C383.059 540.329 385.062 543.033 388.239 545.251C391.416 547.539 395.56 548.579 399.221 548.579C402.881 548.579 407.025 547.47 410.202 545.251C413.379 543.033 415.382 540.259 416.902 537.971C418.421 535.614 419.595 533.534 421.046 531.731C422.496 529.859 424.637 528.334 427.4 526.947C424.775 525.63 421.322 525.422 418.007 526.531Z" fill="#39A8E0"></path> <path d="M487.557 277.837C478.717 272.498 469.531 267.645 460 263.485C455.234 261.405 450.399 259.463 445.426 257.799C440.454 256.135 435.343 254.61 430.025 253.709C427.331 253.224 424.568 252.877 421.598 252.877C420.839 252.946 420.079 252.946 419.25 253.016C418.421 253.085 417.662 253.224 416.902 253.432C415.382 253.778 414.07 254.333 412.758 254.888C409.304 256.482 406.266 258.423 403.434 260.642C402.812 260.295 402.26 259.879 401.707 259.533C398.392 257.522 394.939 255.72 391.14 254.125C390.173 253.709 389.206 253.362 388.239 253.016C387.272 252.669 386.167 252.392 385.131 252.114C384.579 251.976 384.026 251.837 383.473 251.768C382.852 251.698 382.368 251.56 381.678 251.49L379.606 251.352C378.984 251.352 378.363 251.352 377.81 251.421C373.113 251.698 369.315 252.738 365.516 253.848C361.786 254.957 358.126 256.274 354.534 257.591C351.012 258.978 347.49 260.434 344.036 261.959C337.13 265.079 330.43 268.407 323.8 271.943C310.608 279.085 297.831 286.919 285.813 296.071C300.179 291.495 314.061 286.156 327.875 280.818C334.781 278.183 341.619 275.41 348.526 272.845C351.979 271.527 355.363 270.279 358.817 269.101C362.201 267.853 365.654 266.743 369.039 265.773C372.354 264.733 375.807 263.901 378.57 263.693C378.915 263.693 379.26 263.623 379.537 263.623H380.435C380.711 263.623 381.125 263.693 381.401 263.762C381.747 263.831 382.092 263.831 382.437 263.97C383.197 264.109 383.888 264.247 384.648 264.525C385.407 264.733 386.167 265.01 386.996 265.287C393.35 267.506 399.842 270.834 406.266 274.301C419.112 281.234 431.82 288.999 444.943 296.348C434.859 284.839 423.601 274.786 411.238 265.911C409.512 264.733 407.785 263.554 406.058 262.375C408.89 261.682 411.722 261.058 414.415 260.781C415.59 260.642 416.764 260.573 417.8 260.573C418.352 260.573 418.836 260.642 419.319 260.711L420.839 261.058C422.98 261.613 425.259 262.306 427.469 263.207C436.586 266.674 445.772 270.973 455.027 274.994C464.282 279.085 473.675 283.036 483.275 286.711C492.875 290.386 502.545 293.852 512.836 296.348C504.962 289.138 496.398 283.244 487.557 277.837Z" fill="#94C11F"></path> <path d="M284.57 343.009C284.57 332.054 291.891 323.596 302.596 323.596C313.163 323.596 320.623 332.262 320.623 343.009C320.623 353.894 313.302 362.422 302.596 362.422C291.96 362.353 284.57 353.894 284.57 343.009ZM312.473 343.009C312.473 336.63 309.158 330.876 302.596 330.876C296.035 330.876 292.72 336.63 292.72 343.009C292.72 349.457 295.897 355.142 302.596 355.142C309.296 355.073 312.473 349.387 312.473 343.009Z" fill="white"></path> <path d="M327.806 353.548C329.947 353.548 331.397 355.905 335.541 355.905C337.958 355.905 339.823 354.033 339.823 351.606C339.823 348.14 337.406 347.793 335.265 347.446C333.331 347.169 331.604 346.753 331.604 344.465C331.604 341.761 333.814 341.622 335.748 341.137C337.199 340.721 338.58 339.958 338.58 337.74C338.58 336.006 337.337 334.62 335.265 334.62C332.019 334.62 330.43 336.561 328.565 336.561C326.701 336.561 325.457 334.966 325.457 333.164C325.457 329.559 332.088 328.311 335.679 328.311C342.31 328.311 345.487 332.054 345.487 336.769C345.487 339.681 344.313 342.524 341.481 343.841C345.072 344.742 347.352 348.417 347.352 352.092C347.352 357.638 342.793 362.283 335.817 362.283C332.295 362.283 324.836 361.174 324.836 356.876C324.767 355.073 325.941 353.548 327.806 353.548Z" fill="white"></path> <path d="M353.222 332.956C353.222 330.668 354.396 328.935 356.814 328.935H368.21C370.42 328.935 371.456 330.529 371.456 332.124C371.456 333.719 370.351 335.313 368.21 335.313H360.129V342.038H367.657C369.936 342.038 371.042 343.633 371.042 345.228C371.042 346.822 369.867 348.417 367.657 348.417H360.129V355.35H368.555C370.765 355.35 371.801 356.945 371.801 358.539C371.801 360.134 370.696 361.729 368.555 361.729H356.745C354.742 361.729 353.222 360.342 353.222 358.262V332.956Z" fill="white"></path> <path d="M376.774 332.54C376.774 330.391 378.086 328.935 380.366 328.935H388.515C395.284 328.935 400.257 333.372 400.257 339.958C400.257 346.684 395.077 350.844 388.792 350.844H383.681V358.401C383.681 360.689 382.23 362.006 380.227 362.006C378.224 362.006 376.774 360.689 376.774 358.401V332.54ZM383.612 344.812H388.308C391.209 344.812 393.005 342.662 393.005 339.958C393.005 337.185 391.14 335.105 388.308 335.105H383.612V344.812Z" fill="white"></path> <path d="M404.608 332.956C404.608 330.668 405.782 328.935 408.199 328.935H419.595C421.806 328.935 422.842 330.529 422.842 332.124C422.842 333.719 421.737 335.313 419.595 335.313H411.515V342.038H418.974C421.253 342.038 422.358 343.633 422.358 345.228C422.358 346.822 421.184 348.417 418.974 348.417H411.446V355.35H419.941C422.151 355.35 423.187 356.945 423.187 358.539C423.187 360.134 422.082 361.729 419.941 361.729H408.13C406.127 361.729 404.608 360.342 404.608 358.262V332.956Z" fill="white"></path> <path d="M428.091 332.956C428.091 330.668 429.265 328.935 431.682 328.935H443.078C445.288 328.935 446.324 330.529 446.324 332.124C446.324 333.719 445.219 335.313 443.078 335.313H434.997V342.038H442.526C444.805 342.038 445.91 343.633 445.91 345.228C445.91 346.822 444.736 348.417 442.526 348.417H434.997V355.35H443.492C445.703 355.35 446.739 356.945 446.739 358.539C446.739 360.134 445.634 361.729 443.492 361.729H431.682C429.679 361.729 428.16 360.342 428.16 358.262V332.956H428.091Z" fill="white"></path> <path d="M451.643 332.401C451.643 330.183 453.162 328.935 455.234 328.935H464.075C468.84 328.935 472.708 332.193 472.708 337.046C472.708 340.305 471.396 342.454 468.426 343.841V343.91C472.294 344.465 475.402 347.724 475.402 351.745C475.402 358.262 471.119 361.729 464.765 361.729H455.303C453.162 361.729 451.643 360.411 451.643 358.193V332.401ZM458.549 341.9H462.141C464.42 341.9 465.87 340.582 465.87 338.294C465.87 336.145 464.144 335.036 462.141 335.036H458.549V341.9ZM458.549 355.628H463.936C466.423 355.628 468.219 354.172 468.219 351.606C468.219 349.457 466.561 348.001 463.384 348.001H458.549V355.628Z" fill="white"></path> <path d="M491.908 341.484C498.539 341.484 503.374 344.604 503.374 351.537C503.374 358.054 499.091 361.798 492.737 361.798H483.966C481.825 361.798 480.305 360.481 480.305 358.262V332.263C480.305 329.975 481.756 328.657 483.759 328.657C485.762 328.657 487.212 329.975 487.212 332.263V341.484H491.908ZM487.212 355.628H491.908C494.395 355.628 496.191 353.964 496.191 351.398C496.191 349.249 494.533 347.516 491.356 347.516H487.212V355.628ZM510.626 328.657C512.628 328.657 514.079 329.975 514.079 332.263V358.401C514.079 360.689 512.628 362.006 510.626 362.006C508.623 362.006 507.172 360.689 507.172 358.401V332.263C507.172 329.975 508.623 328.657 510.626 328.657Z" fill="white"></path> <path d="M260.811 381.628C260.811 378.022 263.297 374.764 267.648 374.764H290.164C294.032 374.764 296.035 377.745 296.035 380.865C296.035 383.846 294.101 386.966 290.164 386.966H274.003V431.339C274.003 435.776 271.171 438.203 267.372 438.203C263.574 438.203 260.742 435.707 260.742 431.339V381.628H260.811Z" fill="white"></path> <path d="M301.837 406.171C301.837 387.798 314.13 373.654 332.088 373.654C349.769 373.654 362.339 388.214 362.339 406.171C362.339 424.475 350.114 438.688 332.088 438.688C314.269 438.688 301.837 424.475 301.837 406.171ZM348.664 406.171C348.664 395.494 343.139 385.857 332.088 385.857C321.106 385.857 315.512 395.494 315.512 406.171C315.512 416.918 320.899 426.486 332.088 426.486C343.277 426.486 348.664 416.987 348.664 406.171Z" fill="white"></path> <path d="M372.216 381.628C372.216 377.468 374.702 374.764 379.053 374.764H394.662C407.578 374.764 417.178 383.222 417.178 395.91C417.178 408.806 407.232 416.848 395.146 416.848H385.407V431.339C385.407 435.776 382.576 438.203 378.777 438.203C374.978 438.203 372.146 435.707 372.146 431.339V381.628H372.216ZM385.476 405.131H394.455C399.98 405.131 403.503 401.041 403.503 395.771C403.503 390.502 399.98 386.412 394.455 386.412H385.476V405.131Z" fill="white"></path> <path d="M425.604 380.726C425.604 377.121 428.229 374.209 432.235 374.209C436.033 374.209 438.865 376.705 438.865 380.726V399.793L460.552 376.636C461.519 375.596 463.177 374.14 465.663 374.14C468.978 374.14 472.155 376.705 472.155 380.518C472.155 382.806 470.774 384.678 467.873 387.59L451.228 404.022L471.465 425.376C473.468 427.526 475.194 429.467 475.194 432.102C475.194 436.261 471.948 438.203 468.357 438.203C465.801 438.203 464.144 436.677 461.657 434.043L438.865 409.291V431.824C438.865 435.291 436.241 438.203 432.235 438.203C428.436 438.203 425.604 435.707 425.604 431.824V380.726Z" fill="white"></path> <path d="M531.207 438.133C527.409 438.133 524.577 435.637 524.577 431.27V398.337H524.37L495.845 435.291C494.326 437.232 491.977 438.203 490.32 438.203C486.521 438.203 483.689 435.707 483.689 431.339V381.142C483.689 376.705 486.521 374.278 490.32 374.278C494.118 374.278 496.95 376.774 496.95 381.142V414.56H497.157L525.682 377.19C527.201 375.249 529.55 374.278 531.207 374.278C535.006 374.278 537.838 376.774 537.838 381.142V431.339C537.838 435.707 535.006 438.133 531.207 438.133Z" fill="white"></path> </g> <defs> <clipPath id="clip0"> <rect width="277.027" height="297.297" fill="white" transform="translate(260.811 251.352)"></rect> </clipPath> </defs> </svg> 