<?xml version="1.0" encoding="UTF-8"?> <svg xmlns="http://www.w3.org/2000/svg" width="800" height="800" viewBox="0 0 800 800" fill="none"> <path d="M800 0H0V800H800V0Z" fill="#FFD600"></path> <path d="M312.135 387.201C312.135 397.676 319.729 406.318 329.55 408.151V422.816C329.55 450.313 351.94 472.703 379.437 472.703H418.456C445.953 472.703 468.344 450.313 468.344 422.816V408.151C478.295 406.318 485.759 397.545 485.759 387.201C485.759 376.857 478.164 368.084 468.344 366.251V361.406C468.999 361.537 469.522 361.668 470.177 361.668C472.927 362.191 473.189 362.191 473.712 362.191C473.843 362.191 473.974 362.191 474.105 362.191C474.629 362.191 475.153 362.191 475.676 361.93C480.39 361.013 483.925 356.823 483.925 351.847C483.925 347.395 481.176 343.598 477.248 342.158C472.534 307.59 455.905 283.105 430.241 272.892V271.975C430.241 263.464 421.992 256.394 411.91 256.394H386.769C376.687 256.394 368.438 263.333 368.438 271.975V272.892C342.774 283.105 326.145 307.459 321.431 342.158C317.503 343.598 314.623 347.395 314.623 351.847C314.623 356.823 318.158 361.013 322.872 361.93C323.264 362.061 323.788 362.191 324.181 362.191C324.312 362.191 324.443 362.191 324.574 362.191C324.705 362.191 324.836 362.191 324.967 362.191C325.49 362.191 325.752 362.191 328.502 361.668C328.895 361.537 329.288 361.537 329.68 361.406V366.12C319.729 368.084 312.135 376.857 312.135 387.201Z" fill="white"></path> <path fill-rule="evenodd" clip-rule="evenodd" d="M329.551 408.151C319.731 406.318 312.136 397.676 312.136 387.201C312.136 376.857 319.731 368.084 329.682 366.12V361.406C329.486 361.471 329.289 361.504 329.093 361.537C328.896 361.57 328.7 361.602 328.503 361.668C325.754 362.191 325.492 362.191 324.968 362.191H324.575H324.183C323.79 362.191 323.266 362.061 322.873 361.93C318.159 361.013 314.624 356.823 314.624 351.847C314.624 347.395 317.505 343.598 321.433 342.158C326.147 307.459 342.776 283.105 368.44 272.892V271.975C368.44 263.333 376.689 256.394 386.771 256.394H411.911C421.993 256.394 430.242 263.464 430.242 271.975V272.892C455.906 283.105 472.535 307.59 477.249 342.158C481.177 343.598 483.927 347.395 483.927 351.847C483.927 356.823 480.392 361.013 475.678 361.93C475.154 362.191 474.63 362.191 474.107 362.191H473.714C473.19 362.191 472.928 362.191 470.178 361.668C469.619 361.668 469.156 361.572 468.624 361.463C468.534 361.444 468.441 361.425 468.345 361.406V366.251C478.166 368.084 485.76 376.857 485.76 387.201C485.76 397.545 478.297 406.318 468.345 408.151V422.816C468.345 450.313 445.955 472.703 418.458 472.703H379.438C351.941 472.703 329.551 450.313 329.551 422.816V408.151ZM320.123 387.201C320.123 393.355 324.183 398.461 329.682 400.163V374.238C324.183 375.94 320.123 381.047 320.123 387.201ZM418.589 464.978C441.765 464.978 460.62 446.123 460.62 422.947V360.096C437.313 356.299 416.756 354.466 399.472 354.466C381.926 354.466 361.107 356.43 337.538 360.227V422.947C337.538 446.123 356.393 464.978 379.569 464.978H418.589ZM468.476 400.163C473.976 398.461 478.035 393.355 478.035 387.201C478.035 381.177 473.976 376.071 468.476 374.238V400.163ZM324.837 354.466C325.361 354.335 326.016 354.204 327.063 354.073C354.822 349.098 379.177 346.61 399.341 346.741C419.374 346.741 443.729 349.229 471.488 354.073C472.535 354.204 473.321 354.335 473.714 354.466H473.845H473.976C475.285 354.335 476.202 353.288 476.202 352.109C476.202 350.669 475.023 349.621 473.714 349.621C471.619 349.491 470.047 348.05 469.786 346.086C467.56 327.362 459.572 295.151 430.242 281.665V282.45C430.242 284.676 428.54 286.378 426.314 286.378C424.088 286.378 422.386 284.676 422.386 282.45V276.296V275.249V272.237C422.386 268.047 417.541 264.512 411.911 264.512H386.64C381.01 264.512 376.165 268.047 376.165 272.237V282.45C376.165 284.676 374.463 286.378 372.237 286.378C370.011 286.378 368.309 284.676 368.309 282.45V281.665C338.979 295.151 330.991 327.362 328.765 346.086C328.503 348.181 326.801 349.621 324.706 349.621C323.397 349.752 322.349 350.8 322.349 352.109C322.349 353.288 323.266 354.335 324.575 354.466H324.706H324.837ZM434.823 386.022C434.823 390.216 431.423 393.616 427.229 393.616C423.034 393.616 419.634 390.216 419.634 386.022C419.634 381.827 423.034 378.427 427.229 378.427C431.423 378.427 434.823 381.827 434.823 386.022ZM366.869 391.393C368.048 390.214 371.845 387.333 375.249 387.333C378.523 387.333 382.058 390.214 383.106 391.393C383.891 392.178 384.939 392.571 385.986 392.571C386.903 392.571 387.95 392.178 388.736 391.524C390.307 390.083 390.307 387.595 388.867 386.024C388.212 385.369 382.451 379.608 375.249 379.608C368.048 379.608 362.025 385.369 361.37 386.024C359.799 387.595 359.799 389.952 361.37 391.524C362.81 392.964 365.298 392.964 366.869 391.393ZM380.177 404.704C383.792 402.472 387.493 401.553 391.139 402.205C395.046 402.865 398.511 404.951 400.761 408.043C400.883 408.31 401.009 408.445 401.135 408.58L401.542 408.202C404.769 405.825 408.736 404.784 412.643 405.445C416.289 406.096 419.628 408.047 422.266 411.284C427.921 418.163 436.979 425.161 447.158 418.835C448.634 417.838 450.592 418.038 451.859 419.261C453.131 420.354 453.586 422.335 452.746 423.878C446.55 436.239 436.872 443.238 425.726 443.504L424.025 443.444C413.818 443.088 403.672 437.231 397.959 428.253C391.752 433.408 383.534 436.135 375.682 435.86C372.673 435.755 369.677 435.258 366.83 434.241C356.349 430.469 349.345 420.922 347.203 407.221C346.87 405.506 347.846 403.837 349.443 403.107C351.041 402.376 352.99 402.838 354.122 404.187C361.794 413.364 372.54 409.547 380.177 404.704ZM393.729 421.817C394.682 420.802 395.513 419.521 395.698 417.955C396.024 416.132 395.565 414.282 394.703 412.679C393.576 411.199 391.907 410.223 390.084 409.898C388.261 409.572 386.411 410.032 384.533 411.276C374.883 417.49 365.785 419.138 358.151 416.382C360.721 421.581 364.523 425.251 369.572 427C377.337 429.76 387.238 427.617 393.729 421.817ZM406.295 414.656C404.814 415.784 403.839 417.453 403.513 419.276C403.201 420.706 403.408 422.286 404.278 423.626C408.476 430.979 417.336 436.136 425.599 435.9C430.847 435.691 435.64 433.5 439.717 429.318C431.585 429.558 423.483 425.214 416.19 416.443C414.81 414.692 413.141 413.716 411.449 413.395L410.664 413.368C409.093 413.313 407.635 413.786 406.295 414.656ZM406.018 320.946C408.243 320.946 409.946 319.244 409.946 317.018V300.127L422.516 307.328V328.671C422.516 330.897 424.218 332.599 426.444 332.599C428.67 332.599 430.372 330.897 430.372 328.671V305.102C430.372 303.662 429.586 302.353 428.408 301.698L407.982 290.045C406.803 289.39 405.232 289.39 404.053 290.045C402.875 290.699 402.089 292.009 402.089 293.449V317.018C402.089 319.244 403.792 320.946 406.018 320.946ZM396.33 291.486C397.377 293.451 396.723 295.807 394.889 296.855L376.427 307.33V321.864L390.961 313.615C392.925 312.567 395.282 313.222 396.33 315.055C397.377 317.019 396.723 319.376 394.889 320.424L374.463 332.077C373.808 332.47 373.154 332.601 372.499 332.601C371.844 332.601 371.19 332.47 370.535 332.077C369.357 331.423 368.571 330.113 368.571 328.673V305.104C368.571 303.664 369.357 302.354 370.535 301.7L390.961 290.046C392.925 288.999 395.282 289.653 396.33 291.486Z" fill="#142B6F"></path> <path d="M533.292 263.594L547.041 271.451L562.492 262.678L559.218 256.917L547.041 263.856L533.292 256L519.413 263.856L507.236 256.917L504.093 262.678L519.413 271.451L533.292 263.594Z" fill="#142B6F"></path> <path d="M261.989 403.305L274.166 410.245L277.44 404.615L261.989 395.711L248.241 403.567L236.063 396.758L232.79 402.389L248.241 411.162L261.989 403.305Z" fill="#142B6F"></path> <path d="M266.31 325.267C274.167 325.267 280.583 318.851 280.583 310.995C280.583 303.139 274.167 296.723 266.31 296.723C258.454 296.723 252.038 303.139 252.038 310.995C252.038 318.851 258.454 325.267 266.31 325.267ZM266.31 303.27C270.631 303.27 274.036 306.805 274.036 310.995C274.036 315.185 270.5 318.72 266.31 318.72C262.12 318.72 258.585 315.185 258.585 310.995C258.585 306.805 262.12 303.27 266.31 303.27Z" fill="#142B6F"></path> <path d="M537.349 409.853C537.349 404.353 532.897 399.901 527.398 399.901C521.898 399.901 517.446 404.353 517.446 409.853C517.446 415.352 521.898 419.804 527.398 419.804C532.897 419.804 537.349 415.352 537.349 409.853ZM527.398 413.257C525.564 413.257 523.993 411.686 523.993 409.853C523.993 408.02 525.564 406.448 527.398 406.448C529.231 406.448 530.802 408.02 530.802 409.853C530.802 411.686 529.231 413.257 527.398 413.257Z" fill="#142B6F"></path> <path fill-rule="evenodd" clip-rule="evenodd" d="M298.076 510.459C297.513 511.824 297.272 513.19 297.272 514.635C297.272 516.643 297.674 518.49 298.638 520.096C299.521 521.703 300.806 522.988 302.412 523.871C304.019 524.755 305.785 525.236 307.713 525.236C309.159 525.236 310.444 524.995 311.648 524.594C312.773 524.192 313.736 523.711 314.539 523.068C315.262 522.426 315.985 521.703 316.708 520.739L312.451 517.687C311.729 518.49 311.086 519.133 310.363 519.534C309.721 519.936 308.837 520.177 307.874 520.177C306.508 520.177 305.304 519.615 304.42 518.571C303.537 517.527 303.055 516.161 303.055 514.635C303.055 513.029 303.537 511.744 304.42 510.7C305.304 509.656 306.428 509.094 307.874 509.094C309.64 509.094 311.086 509.897 312.371 511.503L316.467 508.291C314.379 505.48 311.568 504.034 307.954 504.034C306.428 504.034 305.063 504.275 303.697 504.837C302.412 505.399 301.288 506.122 300.324 507.086C299.361 508.05 298.638 509.174 298.076 510.459ZM320.158 504.435V509.415H326.261V524.754H331.883V509.415H337.987V504.435H320.158ZM342.567 524.754V504.435H351.241C353.81 504.435 355.899 505.078 357.424 506.363C358.95 507.648 359.673 509.415 359.673 511.663C359.673 513.189 359.272 514.555 358.549 515.679C357.826 516.803 356.782 517.607 355.497 518.169C354.212 518.731 352.686 518.972 351 518.972H348.189V524.835H342.567V524.754ZM348.189 514.555H350.839C351.803 514.555 352.606 514.314 353.168 513.832C353.73 513.35 354.051 512.708 354.051 511.824C354.051 510.941 353.73 510.298 353.168 509.816C352.606 509.334 351.803 509.094 350.759 509.094H348.108V514.555H348.189ZM364.411 510.541C363.849 511.826 363.608 513.192 363.608 514.637C363.608 516.565 364.009 518.251 364.973 519.858C365.937 521.464 367.222 522.749 368.908 523.713C370.515 524.676 372.362 525.158 374.45 525.158C375.976 525.158 377.421 524.917 378.787 524.355C380.152 523.793 381.276 523.07 382.24 522.106C383.204 521.143 383.927 520.018 384.489 518.733C385.051 517.448 385.292 516.083 385.292 514.637C385.292 513.192 385.051 511.826 384.489 510.541C383.927 509.256 383.204 508.132 382.24 507.168C381.276 506.205 380.152 505.482 378.787 504.92C377.421 504.357 375.976 504.117 374.45 504.117C372.924 504.117 371.478 504.357 370.113 504.92C368.748 505.482 367.623 506.205 366.66 507.168C365.696 508.132 364.973 509.256 364.411 510.541ZM370.836 518.492C369.872 517.448 369.39 516.163 369.39 514.637C369.39 513.111 369.872 511.826 370.756 510.782C371.719 509.738 372.924 509.176 374.45 509.176C375.976 509.176 377.261 509.738 378.225 510.782C379.188 511.826 379.67 513.111 379.67 514.637C379.67 516.163 379.188 517.448 378.225 518.492C377.261 519.536 376.056 520.098 374.53 520.098C373.085 520.098 371.8 519.536 370.836 518.492ZM390.593 524.754V504.435H396.135V515.84L404.005 504.435H409.226V524.754H403.684V513.35L395.814 524.754H390.593ZM413.883 504.435V509.415H419.987V524.754H425.609V509.415H431.713V504.435H413.883ZM436.291 524.754V504.435H452.674V509.254H441.913V512.306H451.63V516.723H441.913V519.936H452.835V524.754H436.291ZM456.045 520.257L455.644 524.594C455.965 524.754 456.367 524.835 456.929 524.915L456.929 524.915C457.571 524.995 458.214 525.075 458.856 525.075C459.418 525.075 459.981 524.995 460.463 524.915L460.463 524.915C460.944 524.754 461.426 524.594 461.908 524.272C462.39 523.951 462.792 523.55 463.193 523.068C463.595 522.586 463.916 522.024 464.237 521.221C464.558 520.498 464.88 519.614 465.04 518.57C465.281 517.607 465.442 516.322 465.522 514.956C465.602 513.511 465.683 511.985 465.683 510.218V509.415H470.421V524.754H476.043V504.435H460.382V507.246C460.382 508.933 460.382 510.459 460.302 511.824C460.222 513.189 460.141 514.314 460.061 515.197C459.981 516.081 459.82 516.884 459.659 517.526C459.499 518.169 459.338 518.731 459.178 519.052C459.017 519.373 458.856 519.695 458.615 519.855C458.419 520.051 458.223 520.141 458.07 520.211C458.046 520.222 458.023 520.233 458.001 520.243L457.988 520.249L457.973 520.257C457.812 520.337 457.571 520.337 457.33 520.337C456.848 520.337 456.367 520.337 456.045 520.257ZM481.826 504.435H487.447V510.86H490.499C491.704 510.86 492.828 511.021 493.872 511.262C494.916 511.583 495.8 511.985 496.523 512.547C497.245 513.109 497.888 513.832 498.289 514.715C498.691 515.599 498.932 516.562 498.932 517.687C498.932 519.855 498.209 521.542 496.764 522.827C495.318 524.112 493.31 524.674 490.82 524.674H481.826V504.435ZM487.447 520.096H490.419C491.383 520.096 492.105 519.855 492.587 519.454C493.069 519.052 493.39 518.41 493.39 517.607C493.39 516.884 493.15 516.322 492.587 515.84C492.025 515.438 491.383 515.197 490.419 515.197H487.447V520.096ZM334.858 537.604V549.25H336.062L342.969 539.612V549.25H344.254V537.604H343.049L336.143 547.242V537.604H334.858ZM355.978 549.25V537.604H365.133V549.25H363.848V538.809H357.343V549.25H355.978ZM374.371 537.524L369.07 549.25H370.355L371.721 546.198H378.065L379.43 549.25H380.876L375.576 537.524H374.371ZM374.933 539.05L377.583 544.993H372.283L374.933 539.05ZM384.81 549.169V537.604H389.147C390.512 537.604 391.556 537.926 392.279 538.568C393.082 539.211 393.484 540.174 393.484 541.299C393.484 542.503 393.082 543.467 392.199 544.11C391.315 544.752 390.271 545.073 388.906 545.073H386.095V549.169H384.81ZM386.175 543.949H388.986C389.95 543.949 390.753 543.708 391.315 543.226C391.878 542.744 392.199 542.102 392.199 541.379C392.199 540.576 391.958 539.933 391.396 539.532C390.833 539.13 390.111 538.889 389.147 538.889H386.175V543.949ZM400.63 538.809V549.25H401.915V538.809H405.85V537.604H396.695V538.809H400.63ZM409.946 549.25V537.604H411.231V542.744H417.897V537.604H419.182V549.25H417.897V544.029H411.231V549.25H409.946ZM424.243 537.604V549.25H432.756V548.045H425.608V543.949H431.953V542.744H425.608V538.809H432.676V537.604H424.243ZM437.012 549.169V537.604H441.349C442.714 537.604 443.759 537.926 444.481 538.568C445.284 539.211 445.686 540.174 445.686 541.299C445.686 542.503 445.284 543.467 444.401 544.11C443.518 544.752 442.474 545.073 441.108 545.073H438.297V549.169H437.012ZM438.378 543.949H441.189C442.152 543.949 442.955 543.708 443.518 543.226C444.08 542.744 444.401 542.102 444.401 541.379C444.401 540.576 444.16 539.933 443.598 539.532C443.036 539.13 442.313 538.889 441.349 538.889H438.378V543.949ZM449.783 537.604V549.25H454.281C455.566 549.25 456.61 548.928 457.413 548.286C458.216 547.563 458.617 546.68 458.617 545.555C458.617 544.431 458.216 543.547 457.332 542.985C456.449 542.423 455.405 542.102 454.04 542.102H451.068V537.604H449.783ZM454.2 548.045H451.068V543.307H454.12C455.164 543.307 455.887 543.467 456.449 543.869C457.011 544.27 457.252 544.832 457.252 545.555C457.252 546.358 457.011 547.001 456.449 547.402C455.887 547.804 455.164 548.045 454.2 548.045ZM460.063 537.604V549.25H461.348V537.604H460.063Z" fill="#142B6F"></path> </svg> 